PathFileType	3	(X/Y/Z)	C:\Users\dbak576\Desktop\Duncan Bakke Modelling Files\Output\AB08\_12Mar_ss_12ms_01\AB08_12Mar_ss_12ms_01.trc
DataRate	CameraRate	NumFrames	NumMarkers	Units	OrigDataRate	OrigDataStartFrame	OrigNumFrames
200.0	200.0	4	42	mm	200.0	3058	3036	
Frame#	Time	LASI			RASI			LPSI			RPSI			LTH1			LTH2			LTH3			LTH4			LMFC			LLFC			LTB1			LTB2			LTB3			LTB4			LMMAL			LLMAL			LCAL			LToe			LMT1			LMT5			RTH1			RTH2			RTH3			RTH4			RMFC			RLFC			RTB1			RTB2			RTB3			RTB4			RMMAL			RLMAL			RCAL			RToe			RMT1			RMT5			C7			T10			LACR1			RACR1			CLAV			RBack			
		X1	Y1	Z1	X2	Y2	Z2	X3	Y3	Z3	X4	Y4	Z4	X5	Y5	Z5	X6	Y6	Z6	X7	Y7	Z7	X8	Y8	Z8	X9	Y9	Z9	X10	Y10	Z10	X11	Y11	Z11	X12	Y12	Z12	X13	Y13	Z13	X14	Y14	Z14	X15	Y15	Z15	X16	Y16	Z16	X17	Y17	Z17	X18	Y18	Z18	X19	Y19	Z19	X20	Y20	Z20	X21	Y21	Z21	X22	Y22	Z22	X23	Y23	Z23	X24	Y24	Z24	X25	Y25	Z25	X26	Y26	Z26	X27	Y27	Z27	X28	Y28	Z28	X29	Y29	Z29	X30	Y30	Z30	X31	Y31	Z31	X32	Y32	Z32	X33	Y33	Z33	X34	Y34	Z34	X35	Y35	Z35	X36	Y36	Z36	X37	Y37	Z37	X38	Y38	Z38	X39	Y39	Z39	X40	Y40	Z40	X41	Y41	Z41	X42	Y42	Z42	
3058	15.28	374.33862	988.55511	-952.43933	625.09729	993.78979	-965.33911	449.28754	1010.3478	-738.01093	574.36987	1007.9632	-737.27252	326.53964	751.71533	-1066.1674	313.61761	714.30505	-1059.8206	356.00891	667.98187	-1080.369	342.84326	706.60059	-1075.8536	420.99866	554.12677	-1044.465	293.01956	558.27417	-1018.871	270.77313	470.11807	-968.29205	276.26495	402.552	-918.19092	299.39511	376.86761	-958.97656	289.06625	413.67844	-973.1145	401.15463	212.5507	-820.15302	312.79614	209.78629	-804.03473	354.59778	194.34856	-705.66235	402.54596	45.74987	-962.47278	421.18933	86.163086	-881.77069	303.82346	76.741821	-870.03741	612.67108	704.21448	-980.05768	595.71552	641.68677	-964.28943	638.03308	617.31073	-926.86487	650.84491	671.94708	-943.7619	500.69977	513.80029	-903.58966	626.7265	521.49933	-869.15259	627.10358	402.81259	-873.39423	612.90479	366.30389	-882.39136	599.41663	317.30157	-882.91699	629.97131	320.96875	-838.16187	504.45258	126.6562	-828.87854	587.76904	110.63073	-790.52167	529.58533	61.017456	-721.06909	559.02539	38.759613	-1024.4036	515.37793	40.871677	-935.66132	635.68799	43.664349	-900.16431	471.17419	1512.0713	-806.91083	491.09836	1259.1083	-735.65771	303.24417	1468.9265	-856.87848	624.95319	1494.0962	-868.82861	467.38947	1438.6864	-957.52069	603.41772	1417.8632	-755.64874
3059	15.285	375.11929	988.74469	-952.19983	625.25482	993.71759	-964.38495	449.05548	1010.5829	-737.44794	574.08502	1008.0703	-736.3985	328.01849	753.10535	-1067.427	314.86194	715.67499	-1061.3521	357.54858	669.44781	-1081.7289	344.3591	708.03253	-1077.1141	422.10385	555.40436	-1045.9163	294.10352	559.28595	-1021.4335	271.69968	469.86261	-972.44495	276.97122	401.07666	-923.98792	300.10202	376.41956	-965.28094	289.98657	413.4917	-978.58649	401.19287	207.85109	-832.2019	312.92938	205.20493	-814.88727	354.76245	186.79474	-716.7608	402.11618	46.100601	-978.42065	420.5137	83.756104	-895.77545	303.35611	74.517891	-885.24866	612.99323	703.30591	-976.95648	595.95911	640.95941	-960.6828	638.13794	616.93524	-922.95569	650.94995	671.36383	-940.31946	500.6861	513.31177	-899.28278	626.50739	521.38672	-864.48364	626.83795	402.74728	-868.38434	612.64459	366.21725	-877.25616	599.23407	317.24332	-877.61609	629.66107	321.12067	-832.97278	504.28754	126.66528	-822.86548	587.64807	110.77088	-784.48175	529.53815	61.020084	-715.04333	559.02576	38.708443	-1018.3478	515.86786	41.971905	-931.42065	635.7879	43.669552	-894.05621	471.10764	1512.0803	-806.71155	491.30576	1259.1949	-735.24884	303.14926	1468.62	-856.26343	624.75745	1494.3761	-868.914	467.14359	1438.6193	-957.19208	603.75	1418.1891	-755.71558
3060	15.29	374.7453	988.73096	-952.91058	625.44415	993.42365	-963.3761	448.87845	1010.7472	-736.84552	573.80054	1008.0638	-735.44788	329.62814	754.26703	-1068.5839	316.68198	716.88525	-1063.8409	359.17139	670.711	-1082.9482	345.94952	709.29999	-1078.2766	423.15863	556.4325	-1047.238	295.14127	560.2467	-1023.8674	272.521	469.59161	-976.63446	278.03436	399.64093	-929.91473	300.97177	376.05411	-971.69354	290.69415	413.41379	-984.05835	401.28796	203.76891	-841.43231	312.97284	200.58659	-825.91705	354.823	179.53352	-727.85315	401.75696	46.635201	-994.39227	420.70215	81.782715	-911.25586	303.27313	72.36763	-900.39105	613.32281	702.37982	-974.05084	596.30603	640.09912	-957.20886	638.22528	616.46448	-918.93756	651.0694	670.80957	-936.80542	500.6557	512.81531	-894.99005	626.29315	521.2843	-859.83722	626.66748	402.69644	-863.3493	612.47729	366.09775	-872.03961	599.01135	316.97769	-872.14337	629.58716	321.12949	-827.78925	504.23145	126.66236	-816.94849	587.53918	110.97371	-778.48846	529.45782	60.924225	-709.09601	559.07153	38.570984	-1012.2931	515.41711	40.642006	-923.47021	635.73645	43.633022	-887.96002	471.01358	1512.0411	-806.52502	491.52203	1259.2242	-734.83771	303.07507	1468.25	-855.70703	624.56842	1494.5962	-869.08722	466.89795	1438.4375	-956.91034	603.99768	1418.4623	-755.73126
3061	15.295	375.33701	988.72131	-952.7027	625.54181	993.0321	-962.2677	448.70514	1010.8274	-736.27118	573.58612	1008.0732	-734.64764	331.26602	755.35565	-1069.644	317.81311	717.84827	-1064.244	360.9371	671.72992	-1083.9216	347.6517	710.35175	-1079.2777	424.91519	557.31805	-1048.4761	296.27216	561.09131	-1026.142	273.06747	469.14709	-980.33813	278.1954	398.20065	-935.58588	301.23434	375.50949	-978.21991	291.49219	413.22116	-989.39215	401.53299	199.61363	-852.5473	312.97327	196.00516	-837.08984	354.79663	171.83733	-739.7276	401.37057	47.348732	-1010.3408	420.46582	79.807426	-926.13654	303.02377	70.303741	-915.54633	613.7514	701.3808	-971.10486	596.57166	639.33038	-953.69098	638.31989	616.05005	-914.98358	651.18384	670.15558	-933.30939	500.61362	512.29382	-890.72095	626.09576	521.19379	-855.21356	626.43488	402.53345	-858.30304	612.29681	365.97321	-866.8938	598.86877	316.918	-866.78687	629.31934	321.14084	-822.4223	504.0415	126.68738	-810.98804	587.40399	111.0722	-772.52515	529.4549	60.97226	-703.46729	559.09692	38.482521	-1006.232	515.45337	40.653603	-917.39325	635.80341	43.582745	-881.88763	470.88806	1511.9022	-806.26965	491.67752	1259.172	-734.41187	302.95514	1467.8008	-855.20044	624.33942	1494.7256	-869.20087	466.68643	1438.1934	-956.63348	604.24622	1418.6223	-755.81158
